:version 1.10
:name ASF
:units
  mass 1
  length 1
  angle deg
:documentation
  ASF file generated by Kaydara
:root
  axis xyz
  order  tx ty tz rx ry rz
  position 0 0 0
  orientation 0 0 0
:bonedata
  begin
    id 1
    name SpineDummy
    direction 0.999998 -0.00179978 1.38929e-006
    length 3.60008
    axis 0 0 0 xyz
  end
  begin
    id 2
    name Spine
    direction 0.964365 0.262802 0.0305839
    length 8.13928
    axis 1.33928 -1.75354 15.2838 xyz
    dof rx ry rz
  end
  begin
    id 3
    name Spine1
    direction 0.811168 0.572065 0.12144
    length 7.14954
    axis 2.2224 -6.9761 35.2157 xyz
    dof rx ry rz
  end
  begin
    id 4
    name Neck
    direction 0 0 0
    length 0
    axis 2.2224 -6.9761 35.2157 xyz
    dof rx ry rz
  end
  begin
    id 5
    name HeadDummy
    direction 0.810939 0.572387 0.121455
    length 3.55534
    axis 2.2224 -6.9761 35.2157 xyz
  end
  begin
    id 6
    name Head
    direction 0.998226 -0.000232542 0.0595419
    length 7.35666
    axis -3.03688 -3.41352 -0.0133467 xyz
    dof rx ry rz
  end
  begin
    id 7
    name R_ClavicleDummy
    direction 0.531669 -0.194489 -0.824319
    length 2.49392
    axis 2.2224 -6.9761 35.2157 xyz
  end
  begin
    id 8
    name R_Clavicle
    direction -0.155119 0.0480802 -0.986725
    length 4.485
    axis -54.2764 80.6538 162.779 xyz
    dof rx ry rz
  end
  begin
    id 9
    name R_UpperArm
    direction -0.955567 0.200068 -0.216484
    length 10.1122
    axis -72.9943 12.5026 168.175 xyz
    dof rx ry rz
  end
  begin
    id 10
    name R_Forearm
    direction -0.61433 0.385743 0.688332
    length 9.39148
    axis -117.015 -43.4982 147.875 xyz
    dof rx ry rz
  end
  begin
    id 11
    name R_Hand
    direction -0.699429 0.0170333 0.714499
    length 3.66324
    axis -45.0303 -36.7097 175.478 xyz
    dof rx ry rz
  end
  begin
    id 12
    name L_ClavicleDummy
    direction 0.40287 -0.36502 0.839319
    length 2.49392
    axis 2.2224 -6.9761 35.2157 xyz
  end
  begin
    id 13
    name L_Clavicle
    direction -0.231271 -0.0726419 0.970174
    length 4.485
    axis 18.4357 -75.9711 -162.563 xyz
    dof rx ry rz
  end
  begin
    id 14
    name L_UpperArm
    direction -0.917494 0.144359 0.370629
    length 10.1122
    axis 56.0417 -21.7544 171.058 xyz
    dof rx ry rz
  end
  begin
    id 15
    name L_Forearm
    direction -0.496786 0.615074 -0.612281
    length 9.39148
    axis 89.8094 37.7546 128.927 xyz
    dof rx ry rz
  end
  begin
    id 16
    name L_Hand
    direction -0.409932 0.64962 -0.640274
    length 3.66324
    axis -0.424369 32.133 128.52 xyz
    dof rx ry rz
  end
  begin
    id 17
    name L_ThighDummy
    direction -1.84081e-006 1.87549e-006 1
    length 3.13049
    axis 0 0 0 xyz
  end
  begin
    id 18
    name L_Thigh
    direction -0.947739 0.307978 0.083308
    length 17.9961
    axis 173.219 -4.77873 161.998 xyz
    dof rx ry rz
  end
  begin
    id 19
    name L_Calf
    direction -0.728814 -0.684427 0.0197583
    length 13.3367
    axis 167.331 -1.13214 -136.799 xyz
    dof rx ry rz
  end
  begin
    id 20
    name L_Foot
    direction -0.9028 0.418719 0.0981191
    length 5.8674
    axis 163.436 11.5135 -155.37 xyz
    dof rx ry rz
  end
  begin
    id 21
    name L_Toe0
    direction -0.35341 0.886259 0.299411
    length 4.75286
    axis 169.316 -17.4222 111.74 xyz
    dof rx ry rz
  end
  begin
    id 22
    name R_ThighDummy
    direction 9.32778e-007 -8.82053e-007 -1
    length 3.13049
    axis 0 0 0 xyz
  end
  begin
    id 23
    name R_Thigh
    direction -0.925064 0.37528 -0.0585023
    length 17.9961
    axis -178.698 3.35385 157.919 xyz
    dof rx ry rz
  end
  begin
    id 24
    name R_Calf
    direction -0.68969 -0.718776 -0.0876886
    length 13.3367
    axis -160.504 5.03065 -133.817 xyz
    dof rx ry rz
  end
  begin
    id 25
    name R_Foot
    direction -0.857405 0.418858 -0.299022
    length 5.8674
    axis -161.328 4.38911 -154.413 xyz
    dof rx ry rz
  end
  begin
    id 26
    name R_Toe0
    direction -0.100745 0.952789 -0.286433
    length 4.75286
    axis 171.683 16.6445 96.0359 xyz
    dof rx ry rz
  end
:hierarchy
  begin
    root SpineDummy L_ThighDummy R_ThighDummy
    SpineDummy Spine
    Spine Spine1
    Spine1 Neck
    Neck HeadDummy R_ClavicleDummy L_ClavicleDummy
    HeadDummy Head
    R_ClavicleDummy R_Clavicle
    R_Clavicle R_UpperArm
    R_UpperArm R_Forearm
    R_Forearm R_Hand
    L_ClavicleDummy L_Clavicle
    L_Clavicle L_UpperArm
    L_UpperArm L_Forearm
    L_Forearm L_Hand
    L_ThighDummy L_Thigh
    L_Thigh L_Calf
    L_Calf L_Foot
    L_Foot L_Toe0
    R_ThighDummy R_Thigh
    R_Thigh R_Calf
    R_Calf R_Foot
    R_Foot R_Toe0
  end

:SAMPLES-PER-SECOND 30
:FULLY-SPECIFIED
:DEGREES
263
root  -1.71881 30.922 -10.6094 -80.2268 -5.77207 84.6926
Spine  4.60064 6.47444 -6.2474
Spine1  3.53198 -7.5854 6.50458
Neck  3.97569e-016 0 -2.38542e-015
Head  -6.11653 -3.09503 13.4113
R_Clavicle  0.314521 -14.4697 0.632161
R_UpperArm  27.5455 9.21671 14.9944
R_Forearm  3.77769 -43.4825 22.7973
R_Hand  -1.13545 9.26677 -20.034
L_Clavicle  -0.642968 19.4298 -2.82239
L_UpperArm  -11.7994 8.07914 21.2959
L_Forearm  1.03914 36.0477 38.6913
L_Hand  -0.0976854 -2.56717 -3.98255
L_Thigh  -2.95449 -7.35505 7.80635
L_Calf  3.2897 -2.40301 17.9116
L_Foot  2.20654 14.9492 -4.34662
L_Toe0  0.505156 0.0393787 -6.13605
R_Thigh  6.35426 -0.812114 -32.5524
R_Calf  -0.919239 5.14186 16.163
R_Foot  1.68619 6.60451 3.88573
R_Toe0  0.961999 -0.0771885 11.3231
264
root  -2.03561 30.5971 -11.718 -80.3327 -5.95522 82.8679
Spine  4.36085 2.97368 -5.46712
Spine1  3.40932 -6.9024 7.91004
Neck  3.97569e-016 0 -2.38542e-015
Head  -5.64054 -2.19287 13.3291
R_Clavicle  0.307433 -14.7376 0.476373
R_UpperArm  30.8698 6.34657 16.1079
R_Forearm  1.94696 -44.5898 24.1347
R_Hand  -1.05241 8.88237 -19.4113
L_Clavicle  -0.627891 18.8504 -3.49684
L_UpperArm  -8.50278 7.18378 18.4639
L_Forearm  -4.74679 32.2672 37.2219
L_Hand  -0.121879 -2.31252 -4.4662
L_Thigh  -4.47784 -8.73446 7.24588
L_Calf  3.42054 -1.6918 12.7314
L_Foot  4.22047 14.2598 2.28388
L_Toe0  0.505156 0.0405432 -6.13604
R_Thigh  6.91918 -3.96999 -27.4815
R_Calf  -3.65204 1.08262 3.33707
R_Foot  2.49604 7.04144 -8.08302
R_Toe0  4.02393 -1.62164 18.6832
265
root  -2.343 30.2723 -12.8132 -80.2912 -6.40211 81.4551
Spine  3.59429 -0.399939 -5.5247
Spine1  2.82694 -5.24485 9.88277
Neck  3.97569e-016 0 -2.38542e-015
Head  -3.95218 -1.79214 13.8776
R_Clavicle  0.318594 -15.6103 0.442419
R_UpperArm  30.9468 4.17158 17.2199
R_Forearm  0.235504 -44.5858 24.1532
R_Hand  -0.951524 8.1674 -18.5514
L_Clavicle  -0.647864 19.1397 -3.55255
L_UpperArm  -4.50587 5.36142 15.832
L_Forearm  -10.122 28.0292 35.605
L_Hand  -0.15041 -1.90804 -4.81943
L_Thigh  -5.54106 -9.68583 6.01446
L_Calf  3.45216 -1.1507 8.88765
L_Foot  5.23294 13.9246 5.6357
L_Toe0  0.505156 0.0414719 -6.13604
R_Thigh  7.46685 -6.49275 -22.6636
R_Calf  -3.72 -2.48378 -7.74425
R_Foot  2.19763 3.39841 -15.3249
R_Toe0  9.41316 -3.48138 3.68164
266
root  -2.62649 30.1786 -13.9695 -79.935 -7.28236 80.922
Spine  2.64707 -2.29073 -6.1918
Spine1  2.06005 -3.45249 12.5842
Neck  3.97569e-016 0 -2.38542e-015
Head  -2.65564 -1.48436 14.0828
R_Clavicle  0.341926 -17.2476 0.398157
R_UpperArm  29.7269 2.53647 19.1466
R_Forearm  -0.102728 -43.293 23.2071
R_Hand  -1.06486 7.79563 -19.3875
L_Clavicle  -0.680883 19.9615 -3.05313
L_UpperArm  -2.19497 2.09888 12.147
L_Forearm  -11.6428 25.9602 34.2012
L_Hand  -0.178981 -1.69722 -5.37082
L_Thigh  -5.21049 -9.9938 3.54636
L_Calf  3.35182 -0.860725 6.81731
L_Foot  6.06052 13.3962 8.6146
L_Toe0  0.505156 0.0420375 -6.13603
R_Thigh  8.52396 -8.16075 -18.944
R_Calf  -2.22623 -4.95301 -15.5957
R_Foot  2.02493 2.08342 -15.4196
R_Toe0  8.32838 -1.34078 -12.5661
267
root  -2.8674 30.3685 -15.1774 -79.857 -7.9547 81.1366
Spine  1.84761 -3.042 -7.37731
Spine1  1.47093 -1.8764 14.5581
Neck  3.97569e-016 0 -2.38542e-015
Head  -2.24834 -1.1916 14.6249
R_Clavicle  0.36705 -18.9443 0.328198
R_UpperArm  29.7812 0.391652 21.8594
R_Forearm  1.72464 -41.9777 22.703
R_Hand  -1.44398 8.26451 -22.3322
L_Clavicle  -0.666473 20.0463 -2.5366
L_UpperArm  -0.580398 -0.557608 7.9553
L_Forearm  -10.9546 25.5424 33.5104
L_Hand  -0.19158 -1.61862 -5.61875
L_Thigh  -4.38371 -9.64156 0.364157
L_Calf  3.05803 -0.881741 6.95567
L_Foot  6.65659 12.7615 11.0391
L_Toe0  0.505156 0.0421125 -6.13603
R_Thigh  9.38884 -8.98009 -15.429
R_Calf  -0.675409 -6.26472 -19.9032
R_Foot  1.70288 2.087 -11.8116
R_Toe0  -2.66455 -0.166937 -17.8533
268
root  -3.05555 30.6958 -16.3654 -80.4783 -7.97155 81.4751
Spine  1.13878 -4.13522 -8.75128
Spine1  1.0088 -0.0361154 14.479
Neck  3.97569e-016 0 -2.38542e-015
Head  -1.55021 -1.27979 16.6943
R_Clavicle  0.38566 -20.0819 0.29898
R_UpperArm  32.8204 -2.4497 24.6873
R_Forearm  3.25353 -42.183 23.6294
R_Hand  -1.87959 8.9299 -25.4222
L_Clavicle  -0.604234 19.0346 -2.23151
L_UpperArm  0.263819 -1.16005 4.92514
L_Forearm  -10.052 25.4746 33.3763
L_Hand  -0.17357 -1.52146 -4.97375
L_Thigh  -4.18875 -9.01183 -2.80614
L_Calf  2.78074 -1.11621 8.70854
L_Foot  6.94852 12.2209 12.4885
L_Toe0  0.505156 0.0415695 -6.13603
R_Thigh  9.1585 -9.35314 -11.26
R_Calf  -0.712491 -6.50734 -20.7258
R_Foot  1.51796 1.96222 -10.0538
R_Toe0  -1.87305 -0.271082 -17.3721
269
root  -3.19829 31.1222 -17.5235 -81.4887 -7.6655 81.8523
Spine  0.194911 -5.73204 -9.82789
Spine1  0.335612 2.3463 12.6619
Neck  3.97569e-016 0 -2.38542e-015
Head  0.399915 -1.87991 20.0984
R_Clavicle  0.39539 -20.6315 0.313998
R_UpperArm  37.1102 -5.2031 27.0863
R_Forearm  2.81594 -43.2649 25.9797
R_Hand  -1.98069 9.26143 -26.0558
L_Clavicle  -0.538557 17.7827 -2.06263
L_UpperArm  0.0953939 -0.655709 3.82493
L_Forearm  -9.58973 25.2981 33.0774
L_Hand  -0.137808 -1.34496 -3.7987
L_Thigh  -4.63343 -8.13639 -6.23536
L_Calf  2.92066 -1.5524 11.9418
L_Foot  7.05943 11.9549 13.1132
L_Toe0  0.508187 0.0405422 -6.16564
R_Thigh  8.14791 -9.19649 -7.06226
R_Calf  -1.98567 -5.73996 -18.1949
R_Foot  1.39961 0.894492 -10.9708
R_Toe0  -1.06004 -0.284713 -16.9994
